<svg xmlns:dc="http://purl.org/dc/elements/1.1/" xmlns:cc="http://creativecommons.org/ns#" xmlns:rdf="http://www.w3.org/1999/02/22-rdf-syntax-ns#" xmlns:svg="http://www.w3.org/2000/svg" xmlns="http://www.w3.org/2000/svg" xmlns:sodipodi="http://sodipodi.sourceforge.net/DTD/sodipodi-0.dtd" xmlns:inkscape="http://www.inkscape.org/namespaces/inkscape" version="1.1" x="0px" y="0px" viewBox="0 0 100 125"><g transform="translate(0,-952.36218)"><path style="color:#000000;enable-background:accumulate;" d="m 49.407726,972.85818 c -6.044278,6.04427 -7.829868,14.7291 -5.369634,22.34017 l -29.985723,29.98565 -1.016429,13.1258 17.987036,-1.812 -2e-5,-8.4853 8.485308,10e-5 -2e-5,-8.4854 8.485259,0 10.18672,-10.1867 c 7.611119,2.4603 16.29597,0.6747 22.340225,-5.3696 8.59149,-8.59147 8.591479,-22.52122 -1.4e-5,-31.11272 -8.591503,-8.5915 -22.521224,-8.5915 -31.112708,0 z m 16.263454,6.36395 c 2.343139,-2.34314 6.142142,-2.34313 8.485295,10e-6 2.343136,2.34314 2.343142,6.14215 2e-6,8.48529 -2.343139,2.34314 -6.142144,2.34314 -8.485285,0 -2.343151,-2.34315 -2.343154,-6.14216 -1.2e-5,-8.4853 z" fill="#000000" stroke="none" marker="none" visibility="visible" display="inline" overflow="visible"/></g></svg>