<svg xmlns:x="http://ns.adobe.com/Extensibility/1.0/" xmlns:i="http://ns.adobe.com/AdobeIllustrator/10.0/" xmlns:graph="http://ns.adobe.com/Graphs/1.0/" xmlns="http://www.w3.org/2000/svg" xmlns:xlink="http://www.w3.org/1999/xlink" fill="#7AC943" version="1.1" x="0px" y="0px" viewBox="0 0 64 80" enable-background="new 0 0 64 64" xml:space="preserve"><metadata><sfw xmlns="http://ns.adobe.com/SaveForWeb/1.0/"><slices/><sliceSourceBounds y="-8160" x="-8165" width="16389" height="16384" bottomLeftOrigin="true"/></sfw></metadata><g><g><path d="M20,6H8C6.896,6,6,6.896,6,8v12c0,1.104,0.896,2,2,2h12c1.104,0,2-0.896,2-2V8C22,6.896,21.104,6,20,6z M18,18h-8v-8h8V18    z"/><path d="M38,6H26c-1.104,0-2,0.896-2,2v12c0,1.104,0.896,2,2,2h12c1.104,0,2-0.896,2-2V8C40,6.896,39.104,6,38,6z M36,18h-8v-8h8    V18z"/><path d="M56,6H44c-1.104,0-2,0.896-2,2v12c0,1.104,0.896,2,2,2h12c1.104,0,2-0.896,2-2V8C58,6.896,57.104,6,56,6z M54,18h-8v-8h8    V18z"/><path d="M20,24H8c-1.104,0-2,0.896-2,2v12c0,1.104,0.896,2,2,2h12c1.104,0,2-0.896,2-2V26C22,24.896,21.104,24,20,24z M18,36h-8    v-8h8V36z"/><path d="M38,24H26c-1.104,0-2,0.896-2,2v12c0,1.104,0.896,2,2,2h12c1.104,0,2-0.896,2-2V26C40,24.896,39.104,24,38,24z M36,36h-8    v-8h8V36z"/><path d="M56,24H44c-1.104,0-2,0.896-2,2v12c0,1.104,0.896,2,2,2h12c1.104,0,2-0.896,2-2V26C58,24.896,57.104,24,56,24z M54,36h-8    v-8h8V36z"/><path d="M20,42H8c-1.104,0-2,0.896-2,2v12c0,1.104,0.896,2,2,2h12c1.104,0,2-0.896,2-2V44C22,42.896,21.104,42,20,42z M18,54h-8    v-8h8V54z"/><path d="M38,42H26c-1.104,0-2,0.896-2,2v12c0,1.104,0.896,2,2,2h12c1.104,0,2-0.896,2-2V44C40,42.896,39.104,42,38,42z M36,54h-8    v-8h8V54z"/><path d="M56,42H44c-1.104,0-2,0.896-2,2v12c0,1.104,0.896,2,2,2h12c1.104,0,2-0.896,2-2V44C58,42.896,57.104,42,56,42z M54,54h-8    v-8h8V54z"/></g></g></svg>