<svg xmlns:x="http://ns.adobe.com/Extensibility/1.0/" xmlns:i="http://ns.adobe.com/AdobeIllustrator/10.0/" xmlns:graph="http://ns.adobe.com/Graphs/1.0/" fill="#7AC943" width="32" height="32" xmlns="http://www.w3.org/2000/svg" xmlns:xlink="http://www.w3.org/1999/xlink" version="1.1" x="0px" y="0px" viewBox="0 0 100 125" enable-background="new 0 0 100 100" xml:space="preserve"><metadata><sfw xmlns="http://ns.adobe.com/SaveForWeb/1.0/"><slices/><sliceSourceBounds  x="0.8" y="-1448.4" bottomLeftOrigin="true"/></sfw></metadata><path d="M88.9,42.7c0,1.7-1.4,3.1-3.1,3.1H57.3c-1.7,0-3.1-1.4-3.1-3.1V14.2c0-1.7,1.4-3.1,3.1-3.1h28.5c1.7,0,3.1,1.4,3.1,3.1V42.7  z M11.1,14.2v28.5c0,1.7,1.4,3.1,3.1,3.1h28.5c1.7,0,3.1-1.4,3.1-3.1V14.2c0-1.7-1.4-3.1-3.1-3.1H14.2  C12.5,11.1,11.1,12.5,11.1,14.2z M85.8,54.2H57.3c-1.7,0-3.1,1.4-3.1,3.1v28.5c0,1.7,1.4,3.1,3.1,3.1h28.5c1.7,0,3.1-1.4,3.1-3.1  V57.3C88.9,55.6,87.5,54.2,85.8,54.2z M11.1,85.8c0,1.7,1.4,3.1,3.1,3.1h28.5c1.7,0,3.1-1.4,3.1-3.1V57.3c0-1.7-1.4-3.1-3.1-3.1  H14.2c-1.7,0-3.1,1.4-3.1,3.1V85.8z"/></svg>